<svg xmlns="http://www.w3.org/2000/svg" version="1.1" xmlns:xlink="http://www.w3.org/1999/xlink" xmlns:svgjs="http://svgjs.dev/svgjs" width="2000" height="2250" viewBox="0 0 2000 2250"><g transform="matrix(1,0,0,1,0,0)"><svg viewBox="0 0 320 360" data-background-color="#ffffff" preserveAspectRatio="xMidYMid meet" height="2250" width="2000" xmlns="http://www.w3.org/2000/svg" xmlns:xlink="http://www.w3.org/1999/xlink"><defs></defs><g id="tight-bounds" transform="matrix(1,0,0,1,0,0)"><svg viewBox="0 0 320 360" height="360" width="320"><g><svg></svg></g><g><svg viewBox="0 0 320 360" height="360" width="320"><g><path d="M320 187.111c0-45.764-20.238-86.866-52.203-114.908-28.043-31.964-69.145-52.203-114.908-52.203-84.302 0-152.889 68.587-152.889 152.889 0 45.753 20.231 86.848 52.185 114.891 28.043 31.975 69.152 52.22 114.926 52.22 0.299 0 0.59-0.021 0.889-0.021 0.299 0 0.59 0.021 0.889 0.021 83.456 0 151.111-67.655 151.111-151.111 0-0.299-0.021-0.59-0.021-0.889 0-0.299 0.021-0.59 0.021-0.889zM59.833 263.097c-15.093-21.255-24.071-47.143-24.256-75.097 0.48-72.928 59.492-131.943 132.423-132.423 27.954 0.185 53.845 9.163 75.097 24.256 24.366 23.627 39.57 56.64 39.57 93.056 0 71.559-58.219 129.778-129.778 129.778-36.416 0-69.429-15.204-93.056-39.57zM3.556 172.889c0-82.343 66.99-149.333 149.333-149.333 35.051 0 67.292 12.167 92.8 32.462-22.98-13.824-49.863-21.796-78.578-21.796-84.302 0-152.889 68.587-152.889 152.889 0 28.708 7.968 55.584 21.785 78.56-20.288-25.5-32.452-57.739-32.451-92.782zM167.111 318.667c-35.84 0-68.363-14.418-92.107-37.743 21.952 15.89 48.864 25.298 77.885 25.298 73.522 0 133.333-59.812 133.333-133.333 0-29.02-9.408-55.932-25.298-77.885 23.324 23.744 37.742 56.267 37.743 92.107 0 72.54-59.015 131.556-131.556 131.556z" fill="#b10dc9" data-fill-palette-color="tertiary"></path></g><g transform="matrix(1,0,0,1,64,122.78510028653295)"><svg viewBox="0 0 192 114.4297994269341" height="114.4297994269341" width="192"><g><svg viewBox="0 0 192 114.4297994269341" height="114.4297994269341" width="192"><g><svg viewBox="0 0 192 114.4297994269341" height="114.4297994269341" width="192"><g><svg viewBox="0 0 192 114.4297994269341" height="114.4297994269341" width="192"><g><svg viewBox="0 0 192 114.4297994269341" height="114.4297994269341" width="192"><g><svg viewBox="0 0 192 114.4297994269341" height="114.4297994269341" width="192"><g transform="matrix(1,0,0,1,0,0)"><svg width="192" viewBox="3.83 -35.55 59.64 35.55" height="114.4297994269341" data-palette-color="#b10dc9"><path d="M3.83-35.55L9.59-35.55 18.87-6.54 28.15-35.55 33.91-35.55 33.91 0 29.44 0 29.44-13.84 29.86-27.71 20.56 0 17.14 0 7.89-27.61 8.3-13.84 8.3 0 3.83 0 3.83-35.55ZM58.66 0L52.34-14.38 46.09-14.38 46.09 0 41.6 0 41.6-35.55 51.56-35.55Q56.78-35.55 59.47-32.82 62.16-30.1 62.16-24.85L62.16-24.85Q62.16-21.56 60.7-19.1 59.25-16.65 56.59-15.41L56.59-15.41 63.47-0.29 63.47 0 58.66 0ZM46.09-31.69L46.09-18.21 51.51-18.21Q54.32-18.21 55.99-20.02 57.66-21.83 57.66-24.85L57.66-24.85Q57.66-31.69 51.46-31.69L51.46-31.69 46.09-31.69Z" opacity="1" transform="matrix(1,0,0,1,0,0)" fill="#b10dc9" class="undefined-text-0" data-fill-palette-color="primary" id="text-0"></path></svg></g></svg></g></svg></g></svg></g><g></g></svg></g></svg></g></svg></g></svg></g></svg><rect width="320" height="360" fill="none" stroke="none" visibility="hidden"></rect></g></svg></g></svg>